<svg xmlns="http://www.w3.org/2000/svg" xmlns:xlink="http://www.w3.org/1999/xlink" width="1024" zoomAndPan="magnify" viewBox="0 0 768 767.999994" height="1024" preserveAspectRatio="xMidYMid meet" version="1.0"><defs><clipPath id="id1"><path d="M 0 0 L 768 0 L 768 765.554688 L 0 765.554688 Z M 0 0 " clip-rule="nonzero"/></clipPath></defs><g clip-path="url(#id1)"><path fill="#ffffff" d="M 655.519531 110.023438 C 582.992188 37.5 486.5625 -2.445312 383.996094 -2.445312 C 281.425781 -2.445312 184.996094 37.5 112.46875 110.023438 C 39.941406 182.550781 0 278.980469 0 381.550781 C 0 484.117188 39.941406 580.546875 112.46875 653.074219 C 184.996094 725.601562 281.425781 765.542969 383.996094 765.542969 C 486.5625 765.542969 582.992188 725.601562 655.519531 653.074219 C 728.046875 580.546875 767.988281 484.117188 767.988281 381.550781 C 767.988281 278.980469 728.046875 182.550781 655.519531 110.023438 Z M 129.894531 127.449219 C 197.765625 59.578125 288.007812 22.199219 383.996094 22.199219 C 479.980469 22.199219 570.222656 59.578125 638.09375 127.449219 C 705.964844 195.324219 743.34375 285.5625 743.34375 381.550781 C 743.34375 461.34375 717.492188 537.152344 669.785156 599.453125 C 631.820312 546.367188 571.195312 515.003906 505.355469 515.003906 L 262.632812 515.003906 C 196.792969 515.003906 136.167969 546.367188 98.203125 599.453125 C 50.496094 537.152344 24.640625 461.34375 24.640625 381.550781 C 24.640625 285.5625 62.019531 195.324219 129.894531 127.449219 Z M 383.996094 494.761719 C 482.652344 494.761719 562.917969 414.496094 562.917969 315.839844 C 562.917969 217.179688 482.652344 136.914062 383.996094 136.914062 C 285.335938 136.914062 205.070312 217.179688 205.070312 315.839844 C 205.070312 414.496094 285.335938 494.761719 383.996094 494.761719 Z M 383.996094 494.761719 " fill-opacity="1" fill-rule="nonzero"/></g></svg>